<svg width="188" height="48" viewBox="0 0 188 48" fill="none" xmlns="http://www.w3.org/2000/svg">
<path d="M17.6552 12.1379L0 0V41.931L13.2414 33.6552V48L18.7586 44.1379V30.3448L24.2759 26.4828V20.9655L5.51724 33.1034V9.93103L17.6552 17.6552L29.7931 9.93103V36.4138L35.3103 33.1034V0L17.6552 12.1379Z" fill="url(#paint0_linear_44_2)"/>
<path d="M67.4098 23.9366H64.1282V6.79056H63.5129L58.4676 18.2349H56.0885L51.2072 6.79056H50.5919V23.9366H47.3103V3.8782H53.1761L57.237 13.4767H57.6472L61.7081 3.8782H67.4098V23.9366Z" fill="white"/>
<path d="M88.3263 23.9776H85.455V21.9266L83.404 23.9776H76.841C76.0479 23.9776 75.3643 23.7041 74.79 23.1572C74.2431 22.583 73.9696 21.8993 73.9696 21.1063V9.62088H76.841V21.5165H85.455V9.62088H88.3263V23.9776Z" fill="white"/>
<path d="M105.769 9.62088L103.267 12.082H96.3347V15.3636H102.077C102.87 15.3636 103.54 15.6507 104.087 16.225C104.662 16.7719 104.949 17.4419 104.949 18.2349V21.1063C104.949 21.8993 104.662 22.583 104.087 23.1572C103.54 23.7041 102.87 23.9776 102.077 23.9776H93.4634V21.5165H102.077V17.8247H96.3347C95.5417 17.8247 94.858 17.5513 94.2837 17.0043C93.7368 16.4301 93.4634 15.7464 93.4634 14.9534V12.4922C93.4634 11.6992 93.7368 11.0292 94.2837 10.4823C94.858 9.90802 95.5417 9.62088 96.3347 9.62088H105.769Z" fill="white"/>
<path d="M119.496 23.9776H113.753C112.96 23.9776 112.277 23.7041 111.702 23.1572C111.156 22.583 110.882 21.8993 110.882 21.1063V12.082H106.78L109.241 9.62088H110.882V6.74954L113.753 3.8782V9.62088H119.496V12.082H113.753V21.5165H119.496V23.9776Z" fill="white"/>
<path d="M136.112 6.74954H130.164V23.9776H126.883V6.74954H120.935V3.8782H136.112V6.74954Z" fill="white"/>
<path d="M153.54 23.9776H142.055C141.262 23.9776 140.578 23.7041 140.004 23.1572C139.457 22.583 139.184 21.8993 139.184 21.1063V12.4922C139.184 11.6992 139.457 11.0292 140.004 10.4823C140.578 9.90802 141.262 9.62088 142.055 9.62088H150.669C151.462 9.62088 152.132 9.90802 152.679 10.4823C153.253 11.0292 153.54 11.6992 153.54 12.4922V15.3636L150.669 18.2349H142.465L144.926 15.7738H150.669V12.082H142.055V21.5165H153.54V23.9776Z" fill="white"/>
<path d="M170.357 9.62088L167.855 12.082H160.922V21.5165H169.536V23.9776H160.922C160.129 23.9776 159.446 23.7041 158.871 23.1572C158.324 22.583 158.051 21.8993 158.051 21.1063V12.4922C158.051 11.6992 158.324 11.0292 158.871 10.4823C159.446 9.90802 160.129 9.62088 160.922 9.62088H170.357Z" fill="white"/>
<path d="M188 23.9776H185.128V12.082H176.514V23.9776H173.643V3.05781L176.514 0.186466V11.6718L178.565 9.62088H185.128C185.921 9.62088 186.591 9.90802 187.138 10.4823C187.713 11.0292 188 11.6992 188 12.4922V23.9776Z" fill="white"/>
<path d="M52.5616 43.9417C51.7498 43.9417 51.002 43.8007 50.3184 43.5187C49.6433 43.2367 49.1305 42.8564 48.7802 42.3779C48.7289 42.3095 48.7032 42.2326 48.7032 42.1471C48.7032 42.0275 48.7588 41.9249 48.8699 41.8395C48.9297 41.7968 48.9895 41.7754 49.0493 41.7754C49.169 41.7754 49.2929 41.848 49.4211 41.9933C49.7544 42.3779 50.1902 42.677 50.7286 42.8906C51.2669 43.0957 51.878 43.1982 52.5616 43.1982C53.3564 43.1982 53.9674 43.053 54.3947 42.7624C54.8305 42.4719 55.0484 42.0531 55.0484 41.5062C55.0484 41.0447 54.8433 40.673 54.4331 40.391C54.0315 40.1004 53.3393 39.8483 52.3565 39.6347C51.1259 39.3698 50.2415 39.0322 49.7031 38.622C49.1733 38.2118 48.9083 37.6735 48.9083 37.0069C48.9083 36.2976 49.2032 35.7379 49.7928 35.3277C50.3825 34.9175 51.1858 34.7124 52.2027 34.7124C52.9889 34.7124 53.6939 34.8491 54.3177 35.1226C54.9416 35.396 55.3774 35.7635 55.6252 36.225C55.668 36.3104 55.6893 36.3831 55.6893 36.4429C55.6893 36.5711 55.6252 36.6736 55.4971 36.7505C55.4458 36.7762 55.386 36.789 55.3176 36.789C55.1381 36.789 55.0057 36.7206 54.9202 36.5839C54.6895 36.2164 54.3391 35.9344 53.8691 35.7379C53.4076 35.5413 52.8522 35.4431 52.2027 35.4431C51.3738 35.4431 50.7542 35.5755 50.344 35.8404C49.9424 36.0968 49.7415 36.4856 49.7415 37.0069C49.7415 37.3146 49.8227 37.5752 49.9851 37.7888C50.1475 38.0025 50.4167 38.1905 50.7927 38.3529C51.1772 38.5152 51.7028 38.6733 52.3693 38.8271C53.6085 39.1177 54.5015 39.4723 55.0484 39.8911C55.6039 40.3098 55.8816 40.8482 55.8816 41.5062C55.8816 42.2582 55.5825 42.8521 54.9843 43.288C54.3947 43.7238 53.5871 43.9417 52.5616 43.9417Z" fill="#D24732"/>
<path d="M69.5687 43.9417C68.7312 43.9417 67.9706 43.7537 67.287 43.3777C66.6033 42.9931 66.0607 42.4548 65.659 41.7626C65.2574 41.0618 65.0565 40.25 65.0565 39.3271C65.0565 38.4041 65.2531 37.5923 65.6462 36.8915C66.0478 36.1908 66.5905 35.6524 67.2741 35.2764C67.9663 34.9004 68.7312 34.7124 69.5687 34.7124C70.4061 34.7124 71.1667 34.9004 71.8503 35.2764C72.5425 35.6524 73.0895 36.1908 73.4911 36.8915C73.8928 37.5923 74.0936 38.4041 74.0936 39.3271C74.0936 40.25 73.8928 41.0618 73.4911 41.7626C73.0895 42.4548 72.5425 42.9931 71.8503 43.3777C71.1667 43.7537 70.4061 43.9417 69.5687 43.9417ZM69.5687 43.2111C70.2694 43.2111 70.8975 43.0615 71.453 42.7624C72.017 42.4548 72.4614 42.0104 72.7861 41.4293C73.1108 40.8396 73.2732 40.1389 73.2732 39.3271C73.2732 38.5067 73.1066 37.8059 72.7733 37.2248C72.4485 36.6352 72.0042 36.1908 71.4402 35.8917C70.8847 35.5926 70.2609 35.4388 69.5687 35.4302C68.8679 35.4302 68.2398 35.5841 67.6843 35.8917C67.1289 36.1908 66.6888 36.6352 66.364 37.2248C66.0393 37.8145 65.8769 38.5152 65.8769 39.3271C65.8769 40.1389 66.0393 40.8396 66.364 41.4293C66.6888 42.0104 67.1289 42.4548 67.6843 42.7624C68.2398 43.0615 68.8679 43.2111 69.5687 43.2111Z" fill="#D24732"/>
<path d="M85.1984 43.8135C84.7028 43.8135 84.3182 43.6811 84.0448 43.4162C83.7713 43.1512 83.6346 42.7881 83.6346 42.3266V35.1739C83.6346 35.0286 83.6687 34.9175 83.7371 34.8406C83.8055 34.7551 83.9038 34.7124 84.0319 34.7124C84.1687 34.7124 84.2712 34.7551 84.3396 34.8406C84.4165 34.9175 84.4549 35.0286 84.4549 35.1739V42.3522C84.4549 42.583 84.519 42.7667 84.6472 42.9034C84.7754 43.0401 84.9463 43.1085 85.16 43.1085H89.4542C89.7533 43.1085 89.9028 43.2282 89.9028 43.4674C89.9028 43.5785 89.8643 43.664 89.7874 43.7238C89.7105 43.7836 89.5994 43.8135 89.4542 43.8135H85.1984Z" fill="#D24732"/>
<path d="M102.325 43.9417C101.189 43.9417 100.291 43.6127 99.6334 42.9547C98.9839 42.2967 98.6591 41.3908 98.6591 40.2372V35.1739C98.6591 35.0286 98.6933 34.9175 98.7617 34.8406C98.8386 34.7551 98.9412 34.7124 99.0693 34.7124C99.1975 34.7124 99.2958 34.7551 99.3642 34.8406C99.4411 34.9175 99.4795 35.0286 99.4795 35.1739V40.2756C99.4795 41.2157 99.7273 41.942 100.223 42.4548C100.727 42.959 101.441 43.2111 102.364 43.2111C103.278 43.2111 103.992 42.9547 104.504 42.442C105.017 41.9207 105.273 41.1986 105.273 40.2756V35.1739C105.273 35.0286 105.312 34.9175 105.389 34.8406C105.466 34.7551 105.568 34.7124 105.697 34.7124C105.825 34.7124 105.923 34.7551 105.991 34.8406C106.06 34.9175 106.094 35.0286 106.094 35.1739V40.2372C106.094 40.9806 105.94 41.6344 105.632 42.1984C105.333 42.7539 104.897 43.1854 104.325 43.4931C103.761 43.7922 103.094 43.9417 102.325 43.9417Z" fill="#D24732"/>
<path d="M119.312 43.9417C119.039 43.9417 118.902 43.7879 118.902 43.4803V35.5328H115.877C115.587 35.5328 115.441 35.4217 115.441 35.1995C115.441 35.0713 115.475 34.9816 115.544 34.9303C115.621 34.8705 115.732 34.8406 115.877 34.8406H122.761C123.051 34.8406 123.196 34.9602 123.196 35.1995C123.196 35.4217 123.051 35.5328 122.761 35.5328H119.735V43.4803C119.735 43.6255 119.697 43.7366 119.62 43.8135C119.543 43.899 119.441 43.9417 119.312 43.9417Z" fill="#D24732"/>
<path d="M133.39 43.9417C133.261 43.9417 133.159 43.899 133.082 43.8135C133.014 43.7366 132.979 43.6255 132.979 43.4803V35.1739C132.979 34.8662 133.116 34.7124 133.39 34.7124C133.518 34.7124 133.616 34.7551 133.684 34.8406C133.761 34.9175 133.8 35.0286 133.8 35.1739V43.4803C133.8 43.6255 133.761 43.7366 133.684 43.8135C133.616 43.899 133.518 43.9417 133.39 43.9417Z" fill="#D24732"/>
<path d="M148.232 43.9417C147.395 43.9417 146.634 43.7537 145.951 43.3777C145.267 42.9931 144.724 42.4548 144.323 41.7626C143.921 41.0618 143.72 40.25 143.72 39.3271C143.72 38.4041 143.917 37.5923 144.31 36.8915C144.711 36.1908 145.254 35.6524 145.938 35.2764C146.63 34.9004 147.395 34.7124 148.232 34.7124C149.07 34.7124 149.83 34.9004 150.514 35.2764C151.206 35.6524 151.753 36.1908 152.155 36.8915C152.556 37.5923 152.757 38.4041 152.757 39.3271C152.757 40.25 152.556 41.0618 152.155 41.7626C151.753 42.4548 151.206 42.9931 150.514 43.3777C149.83 43.7537 149.07 43.9417 148.232 43.9417ZM148.232 43.2111C148.933 43.2111 149.561 43.0615 150.117 42.7624C150.681 42.4548 151.125 42.0104 151.45 41.4293C151.774 40.8396 151.937 40.1389 151.937 39.3271C151.937 38.5067 151.77 37.8059 151.437 37.2248C151.112 36.6352 150.668 36.1908 150.104 35.8917C149.548 35.5926 148.924 35.4388 148.232 35.4302C147.531 35.4302 146.903 35.5841 146.348 35.8917C145.792 36.1908 145.352 36.6352 145.028 37.2248C144.703 37.8145 144.54 38.5152 144.54 39.3271C144.54 40.1389 144.703 40.8396 145.028 41.4293C145.352 42.0104 145.792 42.4548 146.348 42.7624C146.903 43.0615 147.531 43.2111 148.232 43.2111Z" fill="#D24732"/>
<path d="M162.293 43.9417C162.165 43.9417 162.062 43.899 161.985 43.8135C161.917 43.7366 161.883 43.6255 161.883 43.4803V38.1734C161.883 37.0966 162.212 36.2506 162.87 35.6353C163.528 35.02 164.434 34.7124 165.587 34.7124C166.733 34.7124 167.634 35.02 168.292 35.6353C168.95 36.2506 169.279 37.0966 169.279 38.1734V43.4803C169.279 43.7879 169.142 43.9417 168.869 43.9417C168.741 43.9417 168.638 43.899 168.561 43.8135C168.493 43.7366 168.459 43.6255 168.459 43.4803V38.1349C168.459 37.2804 168.207 36.6181 167.702 36.1481C167.207 35.6695 166.502 35.4302 165.587 35.4302C164.682 35.4302 163.972 35.6695 163.46 36.1481C162.955 36.6266 162.703 37.2889 162.703 38.1349V43.4803C162.703 43.6255 162.665 43.7366 162.588 43.8135C162.52 43.899 162.421 43.9417 162.293 43.9417Z" fill="#D24732"/>
<path d="M182.614 43.9417C181.802 43.9417 181.055 43.8007 180.371 43.5187C179.696 43.2367 179.183 42.8564 178.833 42.3779C178.782 42.3095 178.756 42.2326 178.756 42.1471C178.756 42.0275 178.811 41.9249 178.923 41.8395C178.982 41.7968 179.042 41.7754 179.102 41.7754C179.222 41.7754 179.346 41.848 179.474 41.9933C179.807 42.3779 180.243 42.677 180.781 42.8906C181.32 43.0957 181.931 43.1982 182.614 43.1982C183.409 43.1982 184.02 43.053 184.447 42.7624C184.883 42.4719 185.101 42.0531 185.101 41.5062C185.101 41.0447 184.896 40.673 184.486 40.391C184.084 40.1004 183.392 39.8483 182.409 39.6347C181.179 39.3698 180.294 39.0322 179.756 38.622C179.226 38.2118 178.961 37.6735 178.961 37.0069C178.961 36.2976 179.256 35.7379 179.846 35.3277C180.435 34.9175 181.238 34.7124 182.255 34.7124C183.042 34.7124 183.747 34.8491 184.37 35.1226C184.994 35.396 185.43 35.7635 185.678 36.225C185.721 36.3104 185.742 36.3831 185.742 36.4429C185.742 36.5711 185.678 36.6736 185.55 36.7505C185.498 36.7762 185.439 36.789 185.37 36.789C185.191 36.789 185.058 36.7206 184.973 36.5839C184.742 36.2164 184.392 35.9344 183.922 35.7379C183.46 35.5413 182.905 35.4431 182.255 35.4431C181.426 35.4431 180.807 35.5755 180.397 35.8404C179.995 36.0968 179.794 36.4856 179.794 37.0069C179.794 37.3146 179.875 37.5752 180.038 37.7888C180.2 38.0025 180.469 38.1905 180.845 38.3529C181.23 38.5152 181.755 38.6733 182.422 38.8271C183.661 39.1177 184.554 39.4723 185.101 39.8911C185.657 40.3098 185.934 40.8482 185.934 41.5062C185.934 42.2582 185.635 42.8521 185.037 43.288C184.447 43.7238 183.64 43.9417 182.614 43.9417Z" fill="#D24732"/>
<defs>
<linearGradient id="paint0_linear_44_2" x1="186.848" y1="-7.68601e-06" x2="50.379" y2="110.296" gradientUnits="userSpaceOnUse">
<stop stop-color="#EC4D37"/>
<stop offset="1" stop-color="#FF624C"/>
</linearGradient>
</defs>
</svg>
